<?xml version="1.0" standalone="no"?>
<!DOCTYPE svg PUBLIC "-//W3C//DTD SVG 20010904//EN"
 "http://www.w3.org/TR/2001/REC-SVG-20010904/DTD/svg10.dtd">
<svg version="1.0" xmlns="http://www.w3.org/2000/svg"
 width="2104.000000pt" height="2104.000000pt" viewBox="0 0 2104.000000 2104.000000"
 preserveAspectRatio="xMidYMid meet">
<metadata>
Created by potrace 1.11, written by Peter Selinger 2001-2013
</metadata>
<g transform="translate(0.000000,2104.000000) scale(0.100000,-0.100000)"
fill="#000000" stroke="none">
<path d="M1425 16743 c-51 -7 -197 -54 -250 -80 -175 -88 -314 -243 -378 -420
-53 -145 -51 -78 -52 -1748 -1 -858 1 -1565 3 -1572 3 -9 127 -11 498 -11
l494 0 1 22 c0 11 1 651 2 1421 l2 1400 1018 0 c681 0 1017 3 1018 10 0 5 1
229 2 498 l2 487 -1165 -1 c-641 -1 -1178 -4 -1195 -6z"/>
<path d="M17264 16253 l1 -498 1015 -1 c558 -1 1017 -2 1020 -3 3 0 5 -636 5
-1412 0 -776 2 -1415 5 -1419 3 -5 226 -8 495 -7 l490 2 2 1565 c2 1701 4
1633 -53 1778 -100 252 -337 438 -611 481 -50 8 -426 11 -1221 11 l-1149 0 1
-497z"/>
<path d="M10275 11570 c-2 -3 -4 -183 -4 -399 0 -216 -2 -396 -5 -399 -3 -3
-173 -5 -378 -5 l-373 1 2 -237 c1 -130 2 -243 2 -251 1 -13 49 -15 376 -15
328 0 375 -2 375 -15 1 -8 1 -189 1 -402 l0 -388 252 0 252 0 0 396 c0 257 3
398 10 402 5 4 174 7 375 7 l365 0 2 252 1 252 -321 0 c-177 0 -347 0 -377 1
l-55 0 0 388 c1 213 -1 394 -3 402 -3 13 -38 15 -248 15 -135 0 -247 -2 -249
-5z"/>
<path d="M19295 8191 c-2 -4 -4 -655 -4 -1446 0 -792 0 -1446 -1 -1452 0 -10
-211 -13 -1020 -13 l-1020 0 0 -499 0 -498 1173 2 c644 1 1186 5 1202 9 130
30 195 55 288 110 169 101 296 266 342 446 9 36 20 74 23 85 3 11 7 750 8
1641 l3 1621 -495 0 c-272 0 -496 -3 -499 -6z"/>
<path d="M747 8036 c-6 -20 0 -3051 7 -3086 65 -337 274 -559 606 -645 58 -15
303 -19 1268 -19 l1152 -1 1 25 c1 31 1 951 0 965 -1 7 -347 10 -1021 9
l-1020 -1 0 1383 0 1383 -494 -1 c-357 0 -496 -4 -499 -12z"/>
</g>
</svg>
